# xmcd
#
# Track frame offsets:
#	150
#	11513
#	22661
#	32880
#	44018
#	52840
#	61090
#	72490
#	85212
#	97372
#	109757
#	123051
#	134639
#	143452
#	154571
#	162840
#	174719
#	186354
#	198458
#	206408
#	220199
#	230362
#	243506
#	254100
#	265079
#
# Disc length: 3675 seconds
# Revision: 0
# Processed by: cddbd v1.5.2PL0 Copyright (c) Steve Scherf et al.
# Submitted via: dBpowerAMP V12.0
#
DISCID=640e5919
DTITLE=Various Artist - Gonna have a Really Soulful Christmas Disc 1
DYEAR=1900
DGENRE=
TTITLE0=Smokey Robinson and The Miracles - Christmas Everyday
TTITLE1=The Debonaires - Crazy Santa Claus
TTITLE2=Detroit Junior - Christmas Day
TTITLE3=The Coasters - Frosty the Snowman
TTITLE4=The Quotations - (Have a) Merry Christmas
TTITLE5=Frankie Valli and The Four Seasons - Santa Claus is Coming to Town
TTITLE6=John Greer - We Wanna See Santa do the Mambo
TTITLE7=Kim Weston - Wish You a Merry Christmas
TTITLE8=The Voices - Santa Claus Boogie
TTITLE9=Toni Harper - Jingle Bells
TTITLE10=Bob B. Soxx and the Blue Jeans - The Bells of St. Mary
TTITLE11=Fat Daddy - Holiday Baby
TTITLE12=The Cameos - Merry Christmas
TTITLE13=Sam Cooke and the Soul Stirrers - Any Day Now
TTITLE14=The Marquees - Santa Done Got Hip
TTITLE15=Freddy King - I Hear Jingle Bells
TTITLE16=Dee Dee Ford - Good Morning Blues
TTITLE17=Gary U.S. Bonds - Call Me For Christmas
TTITLE18=The Uniques - Rock'n'Rudolph
TTITLE19=The Ronettes - Sleigh Ride
TTITLE20=Ron Holden and The Thunderbirds - Who Said There Ain't No Santa Claus?
TTITLE21=The Ravens - Silent Night
TTITLE22=Santo and Johnny - Twistin' Bells
TTITLE23=The Penguins - Jingle Jangle
TTITLE24=The Willows - Church Bells May Ring
EXTD=
EXTT0=
EXTT1=
EXTT2=
EXTT3=
EXTT4=
EXTT5=
EXTT6=
EXTT7=
EXTT8=
EXTT9=
EXTT10=
EXTT11=
EXTT12=
EXTT13=
EXTT14=
EXTT15=
EXTT16=
EXTT17=
EXTT18=
EXTT19=
EXTT20=
EXTT21=
EXTT22=
EXTT23=
EXTT24=
PLAYORDER=
